<svg width="18" height="16" viewBox="0 0 18 16" fill="none" xmlns="http://www.w3.org/2000/svg">
<path id="Vector" d="M1.82614 7.17682L0.745822 4.04877C0.157409 2.34514 -0.136744 1.49343 0.0743917 0.96816C0.257674 0.512039 0.651559 0.165977 1.13789 0.0339067C1.69791 -0.118203 2.54352 0.249039 4.23496 0.98363L15.0951 5.70017C16.7491 6.41856 17.5762 6.7777 17.8324 7.27806C18.0551 7.71279 18.0559 8.22321 17.8347 8.65857C17.5801 9.15975 16.7543 9.52149 15.1026 10.245L4.23186 15.0068C2.5417 15.7472 1.69652 16.1174 1.13596 15.9669C0.649096 15.8362 0.254032 15.4911 0.0693569 15.0354C-0.143385 14.5105 0.14884 13.6574 0.733076 11.9511L1.82828 8.75284L9.99828 8.16444L9.99775 7.7647L1.82614 7.17682Z" fill="#4A00E7"/>
</svg>
